# xmcd CD database file
#
# Track frame offsets:
#	150
#	11007
#	21703
#	34386
#	46819
#	61677
#	74276
#	87439
#
# Disc length: 1336 seconds
#
# Revision: 1
# Processed by: cddbd v1.4PL0 Copyright (c) Steve Scherf et al.
# Submitted via: CDex 1.50
#
DISCID=68053608
DTITLE=Billy Collins - Swingin Paris
DYEAR=1900
DGENRE=Jazz
TTITLE0=It's a sin to tell a lie
TTITLE1=Somebody loves me
TTITLE2=Them there eyes
TTITLE3=Crazy'bout my baby
TTITLE4=Makin' whoopee
TTITLE5=Jeepers creepers
TTITLE6=Jersey Waltz
TTITLE7=Swing it brother swing
EXTD=
EXTT0=
EXTT1=
EXTT2=
EXTT3=
EXTT4=
EXTT5=
EXTT6=
EXTT7=
PLAYORDER=
